<svg width="1920" height="690" viewBox="0 0 1920 690" fill="none" xmlns="http://www.w3.org/2000/svg">
<rect x="273.158" y="0.653442" width="456.536" height="117.092" transform="rotate(45 273.158 0.653442)" fill="white"/>
<rect x="644.358" y="0.730957" width="456.536" height="117.092" transform="rotate(45 644.358 0.730957)" fill="white"/>
<rect y="1" width="1919" height="162" fill="white"/>
<rect x="1035.36" y="0.730957" width="456.536" height="117.092" transform="rotate(45 1035.36 0.730957)" fill="white"/>
<rect x="1428.36" y="0.730957" width="456.536" height="117.092" transform="rotate(45 1428.36 0.730957)" fill="white"/>
<rect x="2" y="320" width="1935" height="93" fill="black"/>
<rect x="190" y="578.819" width="456.536" height="117.092" transform="rotate(-45 190 578.819)" fill="white"/>
<rect x="952" y="578.819" width="456.536" height="117.092" transform="rotate(-45 952 578.819)" fill="white"/>
<rect x="1345" y="581.819" width="456.536" height="117.092" transform="rotate(-45 1345 581.819)" fill="white"/>
<rect x="190" y="578.819" width="456.536" height="117.092" transform="rotate(-45 190 578.819)" fill="white"/>
<rect x="564" y="581.819" width="456.536" height="117.092" transform="rotate(-45 564 581.819)" fill="white"/>
<rect x="2" y="320" width="1935" height="19" fill="black"/>
<rect x="2" y="499" width="1935" height="191" fill="black"/>
<circle cx="56" cy="383" r="10" fill="#D9D9D9"/>
<circle cx="254" cy="383" r="10" fill="#D9D9D9"/>
<circle cx="56" cy="203" r="10" fill="#D9D9D9"/>
</svg>
